<svg xmlns="http://www.w3.org/2000/svg" width="30" height="30" viewBox="0 0 30 30">
  <g id="Group_2225" data-name="Group 2225" transform="translate(-22 -18)">
    <rect id="bk" width="30" height="30" transform="translate(22 18)" fill="none"/>
    <path id="Path_570" data-name="Path 570" d="M18781.1,14262.92H18762v-19.1h19.1v19.1Zm-9.553-16a6.448,6.448,0,1,0,6.451,6.448A6.454,6.454,0,0,0,18771.549,14246.921Zm0,11.987a5.539,5.539,0,1,1,5.537-5.539A5.543,5.543,0,0,1,18771.549,14258.908Zm-4.387-6.617h0c-.01.147-.018.281-.018.411a4.407,4.407,0,0,0,8.814,0c0-.133-.006-.267-.018-.411h-.342a4.064,4.064,0,0,1-8.094,0Zm17.836-8.415h-3.777V14240H18785v3.874Z" transform="translate(-18735 -14219.461)" fill="#e61f23"/>
  </g>
</svg>
