<svg xmlns="http://www.w3.org/2000/svg" xmlns:xlink="http://www.w3.org/1999/xlink" width="32" height="32" viewBox="0 0 32 32">
  <defs>
    <filter id="check_circle_FILL1_wght500_GRAD0_opsz48" x="0.501" y="0.501" width="31" height="31" filterUnits="userSpaceOnUse">
      <feOffset input="SourceAlpha"/>
      <feGaussianBlur stdDeviation="1.5" result="blur"/>
      <feFlood flood-opacity="0.239"/>
      <feComposite operator="in" in2="blur"/>
      <feComposite in="SourceGraphic"/>
    </filter>
  </defs>
  <g id="Group_2223" data-name="Group 2223" transform="translate(-439 -229)">
    <rect id="Rectangle_2928" data-name="Rectangle 2928" width="32" height="32" transform="translate(439 229)" fill="none"/>
    <rect id="Rectangle_2930" data-name="Rectangle 2930" width="14" height="13" transform="translate(448 239)" fill="#16272e"/>
    <g transform="matrix(1, 0, 0, 1, 439, 229)" filter="url(#check_circle_FILL1_wght500_GRAD0_opsz48)">
      <path id="check_circle_FILL1_wght500_GRAD0_opsz48-2" data-name="check_circle_FILL1_wght500_GRAD0_opsz48" d="M13.1,19.739l7.722-7.749-1.382-1.355L13.1,17l-3.2-3.2L8.55,15.161ZM14.7,25.7a10.7,10.7,0,0,1-4.267-.867,11.007,11.007,0,0,1-5.866-5.852,11.035,11.035,0,0,1,0-8.575,10.942,10.942,0,0,1,2.357-3.5,11.263,11.263,0,0,1,3.5-2.344,11.035,11.035,0,0,1,8.575,0,10.909,10.909,0,0,1,5.839,5.825A10.736,10.736,0,0,1,25.7,14.7a10.669,10.669,0,0,1-.867,4.281,11.263,11.263,0,0,1-2.344,3.5,10.983,10.983,0,0,1-3.482,2.357A10.736,10.736,0,0,1,14.7,25.7Z" transform="translate(1.3 1.3)" fill="#fff"/>
    </g>
  </g>
</svg>
