<svg id="Feedback_Icon_Success" xmlns="http://www.w3.org/2000/svg" width="32" height="32" viewBox="0 0 32 32">
  <rect id="base" width="32" height="32" fill="none"/>
  <path id="succes" d="M14.23,21.46l8.49-8.49-1.38-1.35-7.11,7.11-3.6-3.6L9.28,16.48ZM16,28a11.611,11.611,0,0,1-4.65-.945,12.09,12.09,0,0,1-6.405-6.4,11.987,11.987,0,0,1,0-9.33,11.993,11.993,0,0,1,2.58-3.81A12.3,12.3,0,0,1,11.35,4.945a11.987,11.987,0,0,1,9.33,0,11.981,11.981,0,0,1,6.375,6.375,11.987,11.987,0,0,1,0,9.33,12.3,12.3,0,0,1-2.565,3.825,11.993,11.993,0,0,1-3.81,2.58A11.685,11.685,0,0,1,16,28Zm0-1.8a9.815,9.815,0,0,0,7.23-2.985A9.855,9.855,0,0,0,26.2,16a9.84,9.84,0,0,0-2.97-7.23A9.84,9.84,0,0,0,16,5.8,9.855,9.855,0,0,0,8.785,8.77,9.815,9.815,0,0,0,5.8,16a9.829,9.829,0,0,0,2.985,7.215A9.829,9.829,0,0,0,16,26.2ZM16,16Z" fill="#0dd22e"/>
</svg>
