<svg xmlns="http://www.w3.org/2000/svg" width="20" height="20" viewBox="0 0 20 20">
  <g id="Icon_Danger" transform="translate(-430 -410)">
    <rect id="Rectangle_3126" data-name="Rectangle 3126" width="20" height="20" transform="translate(430 410)" fill="none"/>
    <path id="warning_FILL0_wght400_GRAD0_opsz24" d="M40-864.455,49-880l9,15.545Zm2.823-1.636H55.177L49-876.727ZM49-866.909a.792.792,0,0,0,.583-.235.791.791,0,0,0,.235-.583.791.791,0,0,0-.235-.583.792.792,0,0,0-.583-.235.792.792,0,0,0-.583.235.791.791,0,0,0-.235.583.791.791,0,0,0,.235.583A.792.792,0,0,0,49-866.909Zm-.818-2.454h1.636v-4.091H48.182ZM49-871.409Z" transform="translate(391 1292)" fill="#c85454"/>
  </g>
</svg>
